  <svg
    class="purupuru"
    xmlns="http://www.w3.org/2000/svg"
    xmlns:xlink="http://www.w3.org/1999/xlink"
    zoomAndPan="magnify"
    viewBox="0 0 400 400"
    preserveAspectRatio="xMidYMid meet"
    version="1.0"
  >
    <defs>
      <g />
      <clipPath id="bb16bdec89">
        <path
          d="M 0 5 L 375 5 L 375 374.742188 L 0 374.742188 Z M 0 5 "
          clip-rule="nonzero"
        />
      </clipPath>
      <clipPath id="7e8f66bae1">
        <path
          d="M 113 36 L 215 36 L 215 188 L 113 188 Z M 113 36 "
          clip-rule="nonzero"
        />
      </clipPath>
      <clipPath id="22291c384c">
        <path
          d="M 59.496094 31.652344 L 303.957031 36.046875 L 301.152344 192.019531 L 56.691406 187.628906 Z M 59.496094 31.652344 "
          clip-rule="nonzero"
        />
      </clipPath>
      <clipPath id="ab4f309c24">
        <path
          d="M 59.496094 31.652344 L 303.957031 36.046875 L 301.152344 192.019531 L 56.691406 187.628906 Z M 59.496094 31.652344 "
          clip-rule="nonzero"
        />
      </clipPath>
      <clipPath id="b763aafef1">
        <path
          d="M 57 92 L 302 92 L 302 189 L 57 189 Z M 57 92 "
          clip-rule="nonzero"
        />
      </clipPath>
      <clipPath id="1701195777">
        <path
          d="M 59.496094 31.652344 L 303.957031 36.046875 L 301.152344 192.019531 L 56.691406 187.628906 Z M 59.496094 31.652344 "
          clip-rule="nonzero"
        />
      </clipPath>
      <clipPath id="be2a0cfa1d">
        <path
          d="M 59.496094 31.652344 L 303.957031 36.046875 L 301.152344 192.019531 L 56.691406 187.628906 Z M 59.496094 31.652344 "
          clip-rule="nonzero"
        />
      </clipPath>
      <clipPath id="9aba8ce9d4">
        <path
          d="M 58.429688 90.878906 L 303.230469 95.277344 L 301.527344 190.054688 L 56.726562 185.652344 Z M 58.429688 90.878906 "
          clip-rule="nonzero"
        />
      </clipPath>
      <clipPath id="15cecfe174">
        <path
          d="M 58.429688 90.878906 L 302.867188 95.273438 L 301.171875 189.574219 L 56.734375 185.183594 Z M 58.429688 90.878906 "
          clip-rule="nonzero"
        />
      </clipPath>
      <clipPath id="97239864b5">
        <path
          d="M 130 56 L 269 56 L 269 169 L 130 169 Z M 130 56 "
          clip-rule="nonzero"
        />
      </clipPath>
      <clipPath id="b1cec64d9a">
        <path
          d="M 59.496094 31.652344 L 303.957031 36.046875 L 301.152344 192.019531 L 56.691406 187.628906 Z M 59.496094 31.652344 "
          clip-rule="nonzero"
        />
      </clipPath>
      <clipPath id="03d86a42b6">
        <path
          d="M 59.496094 31.652344 L 303.957031 36.046875 L 301.152344 192.019531 L 56.691406 187.628906 Z M 59.496094 31.652344 "
          clip-rule="nonzero"
        />
      </clipPath>
      <clipPath id="2ad4678830">
        <path
          d="M 202 99 L 270 99 L 270 151 L 202 151 Z M 202 99 "
          clip-rule="nonzero"
        />
      </clipPath>
      <clipPath id="740a6d17b8">
        <path
          d="M 59.496094 31.652344 L 303.957031 36.046875 L 301.152344 192.019531 L 56.691406 187.628906 Z M 59.496094 31.652344 "
          clip-rule="nonzero"
        />
      </clipPath>
      <clipPath id="22c4b2a1b0">
        <path
          d="M 59.496094 31.652344 L 303.957031 36.046875 L 301.152344 192.019531 L 56.691406 187.628906 Z M 59.496094 31.652344 "
          clip-rule="nonzero"
        />
      </clipPath>
      <clipPath id="67491985ac">
        <path
          d="M 143 134 L 236 134 L 236 189 L 143 189 Z M 143 134 "
          clip-rule="nonzero"
        />
      </clipPath>
      <clipPath id="82cc44bc1b">
        <path
          d="M 59.496094 31.652344 L 303.957031 36.046875 L 301.152344 192.019531 L 56.691406 187.628906 Z M 59.496094 31.652344 "
          clip-rule="nonzero"
        />
      </clipPath>
      <clipPath id="5ebb019136">
        <path
          d="M 59.496094 31.652344 L 303.957031 36.046875 L 301.152344 192.019531 L 56.691406 187.628906 Z M 59.496094 31.652344 "
          clip-rule="nonzero"
        />
      </clipPath>
      <clipPath id="c939f996ce">
        <path
          d="M 65.644531 96.140625 L 313.871094 96.140625 L 313.871094 191.824219 L 65.644531 191.824219 Z M 65.644531 96.140625 "
          clip-rule="nonzero"
        />
      </clipPath>
      <clipPath id="18ffaec80a">
        <path
          d="M 0 90.5625 L 374.960938 90.5625 L 374.960938 234.765625 L 0 234.765625 Z M 0 90.5625 "
          clip-rule="nonzero"
        />
      </clipPath>
    </defs>
    <g clip-path="url(#bb16bdec89)">
      <path
        fill="#103c76"
        d="M 71.726562 10.757812 C 81.605469 11.3125 91.5 11.273438 101.386719 11.128906 C 118.546875 10.878906 135.703125 10.496094 152.863281 9.980469 C 159.570312 9.78125 166.195312 8.386719 172.910156 8.0625 C 176.074219 7.910156 179.242188 7.597656 182.410156 7.558594 C 194.789062 7.414062 207.167969 7.253906 219.539062 7.285156 C 227.804688 7.304688 236.078125 7.765625 244.34375 7.820312 C 255.792969 7.894531 267.203125 7.003906 278.617188 6.171875 C 291.152344 5.257812 303.707031 5 316.273438 5.785156 C 323.40625 6.230469 330.5625 6.316406 337.703125 6.699219 C 351.328125 7.4375 361.9375 13.660156 367.457031 26.085938 C 372.214844 36.796875 374.351562 48.382812 372.617188 60.324219 C 370.601562 74.207031 371.277344 88.101562 372.589844 101.984375 C 373.71875 113.929688 374.878906 125.855469 374.339844 137.886719 C 373.921875 147.277344 372.753906 156.582031 371.554688 165.886719 C 370.234375 176.121094 370.558594 186.359375 371.042969 196.601562 C 371.363281 203.367188 371.992188 210.121094 372.191406 216.890625 C 372.519531 228.082031 373.730469 239.203125 374.371094 250.371094 C 375.019531 261.6875 374.335938 272.988281 374.078125 284.289062 C 373.792969 296.660156 372.398438 308.960938 371.640625 321.300781 C 371.234375 327.878906 371.089844 334.457031 370.910156 341.042969 C 370.601562 352.382812 365.265625 360.671875 355.3125 366.167969 C 347.886719 370.265625 339.871094 371.503906 331.59375 371.582031 C 323.699219 371.660156 315.796875 371.265625 307.914062 371.523438 C 302.140625 371.714844 296.390625 372.167969 290.597656 372.046875 C 282.5 371.878906 274.460938 371.242188 266.4375 370.199219 C 263.546875 369.828125 260.613281 369.589844 257.703125 369.589844 C 230.519531 369.558594 203.335938 369.390625 176.15625 369.6875 C 164.351562 369.8125 152.558594 370.808594 140.769531 371.609375 C 129.296875 372.386719 117.851562 373.824219 106.371094 374.238281 C 92.394531 374.742188 78.390625 374.6875 64.414062 373.769531 C 59.066406 373.421875 53.71875 373.300781 48.378906 373.734375 C 44.800781 374.023438 41.261719 373.851562 37.832031 372.902344 C 32.871094 371.527344 27.753906 370.773438 22.960938 368.738281 C 17.726562 366.511719 14.460938 362.6875 12.710938 357.371094 C 10.875 351.78125 9.800781 346.050781 9.753906 340.175781 C 9.675781 328.421875 9.800781 316.675781 9.679688 304.925781 C 9.535156 290.945312 8.230469 277 7.953125 263.019531 C 7.671875 249.164062 7.691406 235.292969 7.046875 221.453125 C 6.441406 208.46875 6.921875 195.480469 6.683594 182.496094 C 6.433594 168.878906 5.167969 155.328125 3.601562 141.804688 C 1.886719 127.046875 0.644531 112.273438 1.394531 97.363281 C 2.085938 83.574219 1.539062 69.792969 0.660156 56 C 0.0078125 45.800781 0.488281 35.417969 4.433594 25.894531 C 8.167969 16.890625 15.316406 11.371094 25.5 10.792969 C 33.199219 10.359375 40.898438 9.957031 48.617188 10.015625 C 56.320312 10.085938 64.023438 10.394531 71.726562 10.757812 Z M 88.554688 15.125 C 84.636719 15.125 80.710938 15.28125 76.800781 15.101562 C 60.023438 14.324219 43.253906 13.777344 26.460938 14.832031 C 17.722656 15.382812 9.855469 20.957031 7.480469 29.378906 C 5.109375 37.800781 4.261719 46.5 4.75 55.226562 C 5.410156 66.957031 6.136719 78.679688 5.777344 90.433594 C 5.59375 96.460938 5.246094 102.484375 5.25 108.511719 C 5.257812 119.027344 6.332031 129.480469 7.539062 139.914062 C 9.65625 158.257812 11.277344 176.628906 10.800781 195.128906 C 10.40625 210.363281 11.558594 225.570312 11.75 240.796875 C 11.878906 251.234375 11.96875 261.683594 12.433594 272.109375 C 13.066406 286.453125 13.9375 300.777344 13.917969 315.144531 C 13.902344 323.597656 13.855469 332.050781 13.9375 340.503906 C 13.992188 346.070312 15.039062 351.484375 16.898438 356.753906 C 18.1875 360.402344 20.46875 363.03125 24.046875 364.660156 C 28.792969 366.820312 33.941406 367.488281 38.886719 368.902344 C 42.273438 369.871094 45.78125 369.859375 49.261719 369.558594 C 53.179688 369.210938 57.089844 369.246094 61.007812 369.4375 C 65.226562 369.636719 69.449219 370.007812 73.675781 370.066406 C 84.058594 370.21875 94.457031 370.613281 104.824219 370.210938 C 115.4375 369.796875 126.003906 368.332031 136.613281 367.710938 C 154.425781 366.667969 172.21875 365.242188 190.085938 365.324219 C 210.363281 365.414062 230.640625 365.433594 250.910156 365.332031 C 259.585938 365.292969 268.148438 366.320312 276.75 367.171875 C 285.851562 368.070312 294.988281 368.285156 304.125 367.574219 C 307.035156 367.351562 309.941406 367.101562 312.875 367.152344 C 320.144531 367.269531 327.421875 367.539062 334.679688 367.339844 C 341.96875 367.136719 348.957031 365.457031 355.210938 361.445312 C 361.703125 357.277344 365.679688 351.457031 366.535156 343.730469 C 367.261719 337.121094 366.804688 330.433594 367.582031 323.820312 C 367.957031 320.617188 368.011719 317.421875 367.171875 314.257812 C 367.074219 313.878906 367.132812 313.296875 367.367188 313.011719 C 368.242188 311.957031 368.191406 310.683594 368.285156 309.472656 C 368.765625 303.402344 369.335938 297.34375 369.589844 291.253906 C 370.15625 277.652344 370.808594 264.054688 370.207031 250.441406 C 369.785156 241.003906 368.636719 231.621094 368.238281 222.175781 C 367.933594 214.914062 367.507812 207.65625 367.109375 200.394531 C 366.453125 188.410156 365.949219 176.445312 367.527344 164.472656 C 368.730469 155.359375 369.835938 146.230469 370.226562 137.027344 C 370.816406 123.0625 368.886719 109.246094 367.882812 95.367188 C 367.152344 85.316406 366.570312 75.246094 367.976562 65.214844 C 369.484375 54.46875 368.671875 44.019531 365.84375 33.496094 C 363.050781 23.105469 356.503906 16.609375 347.039062 12.617188 C 342.328125 10.628906 337.171875 10.804688 332.140625 10.597656 C 325.242188 10.320312 318.34375 10.160156 311.453125 9.796875 C 299.496094 9.160156 287.574219 9.664062 275.671875 10.605469 C 264.875 11.453125 254.070312 12.214844 243.257812 12.007812 C 227.210938 11.699219 211.171875 11.273438 195.128906 11.574219 C 185.925781 11.742188 176.714844 11.703125 167.550781 12.675781 C 160.933594 13.378906 154.335938 14.488281 147.679688 14.421875 C 127.96875 14.199219 108.277344 15.742188 88.554688 15.125 Z M 88.554688 15.125 "
        fill-opacity="1"
        fill-rule="nonzero"
      />
    </g>
    <g clip-path="url(#7e8f66bae1)">
      <g clip-path="url(#22291c384c)">
        <g clip-path="url(#ab4f309c24)">
          <path
            fill="#fffff2"
            d="M 206.523438 176.539062 C 201.019531 178.839844 195.851562 181.972656 190.542969 184.671875 C 183.417969 188.300781 180.992188 189.769531 174.699219 178.121094 C 158.96875 149.007812 144.644531 118.753906 129.683594 89.207031 C 125.113281 80.175781 119.328125 70.570312 115.515625 61.21875 C 109.660156 46.863281 121.234375 46.828125 128.257812 43.253906 C 133.0625 40.808594 140.964844 33.183594 145.664062 38.078125 C 151.585938 44.242188 158.886719 64.191406 162.914062 72.148438 C 178.898438 103.726562 194.730469 134.964844 211.824219 165.917969 C 220.082031 173.726562 209.25 175.402344 206.523438 176.539062 "
            fill-opacity="1"
            fill-rule="nonzero"
          />
        </g>
      </g>
    </g>
    <g clip-path="url(#b763aafef1)">
      <g clip-path="url(#1701195777)">
        <g clip-path="url(#be2a0cfa1d)">
          <g clip-path="url(#9aba8ce9d4)">
            <g clip-path="url(#15cecfe174)">
              <path
                fill="#fffff2"
                d="M 300.734375 152.03125 C 299.320312 149.65625 290.21875 150.917969 289.023438 149.507812 C 288.132812 148.457031 289.25 144.492188 288.726562 143.074219 C 287.222656 139 282.183594 139.113281 278.410156 138.957031 C 271.535156 138.671875 272.449219 143.339844 272.71875 149.449219 C 271.359375 149.457031 269.730469 149.671875 268.269531 149.671875 C 268.425781 149.894531 268.519531 150.167969 268.511719 150.460938 C 268.5 151.195312 267.894531 151.78125 267.160156 151.769531 L 235.082031 151.191406 C 235.074219 151.535156 234.867188 151.902344 234.851562 152.289062 C 234.8125 153.300781 234.9375 154.542969 234.886719 155.980469 C 234.878906 156.394531 234.871094 156.808594 234.863281 157.226562 C 234.792969 161.144531 234.722656 165.058594 234.652344 168.976562 C 234.613281 171.21875 234.574219 173.464844 234.53125 175.703125 C 234.589844 180.761719 234.652344 186.414062 234.632812 187.511719 C 234.601562 189.296875 248.992188 188.03125 252.863281 188.085938 C 257.242188 188.148438 261.621094 188.164062 266 188.167969 C 270.871094 188.171875 275.734375 188.15625 280.605469 188.15625 C 283.433594 188.15625 296.746094 189.65625 299.054688 187.46875 C 301.308594 185.332031 300.3125 183.75 300.40625 180.957031 C 300.578125 175.933594 300.753906 170.914062 300.925781 165.890625 C 301.058594 161.996094 302.839844 155.5625 300.734375 152.03125 Z M 155.699219 127.921875 C 155.960938 129.003906 152.09375 131.339844 151.140625 132.109375 C 146.320312 136.011719 141.496094 139.910156 136.675781 143.8125 C 124.269531 153.839844 111.867188 163.871094 99.464844 173.90625 C 95.382812 177.207031 91.300781 180.507812 87.214844 183.8125 C 86.882812 184.078125 85.550781 185.542969 85.097656 185.523438 C 84.566406 185.503906 83.132812 183.152344 82.789062 182.726562 C 78.058594 176.84375 73.324219 170.960938 68.589844 165.078125 C 66.664062 162.6875 64.742188 160.296875 62.820312 157.90625 C 62.601562 157.632812 61.566406 156.707031 61.566406 156.347656 C 61.5625 155.84375 63.226562 154.859375 63.683594 154.492188 C 64.207031 154.066406 66.121094 152.90625 66.101562 152.324219 C 66.074219 151.582031 64.046875 149.773438 63.59375 149.210938 C 62.328125 147.636719 61.0625 146.0625 59.796875 144.488281 C 59.398438 143.996094 57.515625 142.300781 57.519531 141.65625 C 57.519531 141.285156 58.464844 140.734375 58.8125 140.457031 C 60.191406 139.34375 61.566406 138.226562 62.945312 137.113281 C 64.53125 135.828125 66.121094 134.546875 67.710938 133.261719 C 68.558594 132.574219 69.792969 131.085938 70.832031 130.734375 C 71.539062 130.492188 71.253906 130.449219 71.90625 131.25 C 73.015625 132.601562 74.097656 133.972656 75.195312 135.332031 C 76.390625 136.820312 77.585938 138.304688 78.777344 139.789062 C 79.136719 140.230469 79.671875 141.222656 80.132812 141.1875 C 80.984375 141.121094 82.8125 139.019531 83.460938 138.492188 C 84.972656 137.273438 86.476562 136.054688 87.984375 134.835938 C 88.347656 134.539062 89.957031 133.578125 90.011719 133.136719 C 90.074219 132.644531 88.105469 130.765625 87.808594 130.398438 C 86.546875 128.828125 85.285156 127.257812 84.019531 125.6875 C 83.484375 125.023438 81.570312 123.371094 81.460938 122.507812 C 81.332031 121.472656 85.347656 118.996094 86.269531 118.25 C 87.871094 116.953125 89.472656 115.660156 91.074219 114.363281 C 92.101562 113.53125 93.324219 112.109375 94.535156 111.566406 C 95.390625 111.179688 94.757812 111.085938 95.527344 111.703125 C 96.710938 112.644531 97.671875 114.363281 98.617188 115.539062 C 99.84375 117.0625 101.074219 118.589844 102.300781 120.117188 C 102.554688 120.4375 103.476562 121.964844 103.871094 121.988281 C 104.472656 122.023438 106.34375 119.988281 106.804688 119.613281 C 108.332031 118.382812 109.851562 117.148438 111.378906 115.914062 C 111.757812 115.605469 113.820312 114.386719 113.878906 113.890625 C 113.925781 113.46875 112.257812 111.875 112.011719 111.570312 C 110.757812 110.015625 109.507812 108.460938 108.257812 106.902344 C 107.550781 106.03125 105.667969 104.453125 105.394531 103.347656 C 105.230469 102.691406 105.203125 103.007812 105.898438 102.375 C 107.0625 101.308594 108.378906 100.367188 109.605469 99.375 C 112.429688 97.089844 115.175781 94.589844 118.128906 92.480469 C 118.894531 91.933594 118.578125 91.894531 119.183594 92.195312 C 120.199219 92.699219 121.34375 94.878906 122.046875 95.753906 C 123.917969 98.082031 125.792969 100.410156 127.667969 102.738281 C 128.628906 101.964844 131.59375 98.816406 132.535156 99.128906 C 132.988281 99.277344 133.703125 100.582031 133.992188 100.941406 C 134.882812 102.046875 135.769531 103.152344 136.660156 104.253906 C 139.109375 107.304688 141.566406 110.351562 144.019531 113.402344 C 146.453125 116.429688 148.886719 119.453125 151.320312 122.480469 C 152.242188 123.625 153.167969 124.773438 154.089844 125.921875 C 154.476562 126.402344 155.550781 127.308594 155.699219 127.921875 "
                fill-opacity="1"
                fill-rule="nonzero"
              />
            </g>
          </g>
        </g>
      </g>
    </g>
    <g clip-path="url(#97239864b5)">
      <g clip-path="url(#b1cec64d9a)">
        <g clip-path="url(#03d86a42b6)">
          <path
            fill="#fffff2"
            d="M 268.511719 150.460938 C 268.5 151.195312 267.894531 151.78125 267.160156 151.769531 L 204.929688 150.648438 C 204.578125 150.644531 204.261719 150.496094 204.023438 150.265625 C 203.898438 150.140625 203.796875 149.992188 203.726562 149.828125 C 203.660156 149.664062 203.625 149.484375 203.628906 149.296875 C 203.640625 148.558594 204.246094 147.972656 204.980469 147.984375 L 267.210938 149.105469 C 267.648438 149.113281 268.03125 149.335938 268.269531 149.671875 C 268.425781 149.894531 268.519531 150.167969 268.511719 150.460938 Z M 174.648438 134.757812 C 171.046875 136.589844 166.628906 135.144531 164.800781 131.535156 C 162.972656 127.921875 164.414062 123.492188 168.015625 121.660156 C 169.101562 121.109375 170.273438 120.839844 171.453125 120.863281 C 172.175781 120.875 172.902344 120.996094 173.609375 121.226562 C 175.46875 121.835938 176.980469 123.132812 177.863281 124.882812 C 178.75 126.632812 178.902344 128.621094 178.296875 130.488281 C 177.6875 132.355469 176.390625 133.871094 174.648438 134.757812 Z M 180.824219 131.316406 C 181.652344 128.773438 181.441406 126.0625 180.234375 123.679688 C 179.027344 121.292969 176.964844 119.523438 174.433594 118.695312 C 171.898438 117.863281 169.191406 118.074219 166.8125 119.285156 C 161.90625 121.78125 159.9375 127.820312 162.429688 132.742188 C 164.160156 136.15625 167.589844 138.152344 171.167969 138.214844 C 172.746094 138.242188 174.351562 137.898438 175.851562 137.136719 C 178.230469 135.925781 179.996094 133.859375 180.824219 131.316406 Z M 190.179688 165.4375 C 188.4375 166.328125 186.449219 166.480469 184.589844 165.871094 C 182.730469 165.261719 181.21875 163.964844 180.332031 162.214844 C 179.445312 160.464844 179.292969 158.476562 179.902344 156.609375 C 180.507812 154.742188 181.804688 153.230469 183.550781 152.339844 C 184.632812 151.789062 185.808594 151.523438 186.988281 151.542969 C 187.707031 151.554688 188.433594 151.675781 189.140625 151.90625 C 191 152.515625 192.511719 153.816406 193.398438 155.5625 C 195.226562 159.175781 193.78125 163.605469 190.179688 165.4375 Z M 189.964844 149.375 C 187.429688 148.542969 184.722656 148.753906 182.347656 149.960938 C 179.96875 151.171875 178.203125 153.242188 177.375 155.78125 C 176.546875 158.324219 176.753906 161.035156 177.960938 163.421875 C 179.167969 165.804688 181.230469 167.574219 183.765625 168.402344 C 184.726562 168.71875 185.714844 168.886719 186.699219 168.902344 C 188.304688 168.933594 189.90625 168.566406 191.382812 167.8125 C 196.292969 165.316406 198.257812 159.277344 195.765625 154.355469 C 194.558594 151.972656 192.5 150.203125 189.964844 149.375 Z M 143.585938 73.398438 C 139.980469 75.230469 135.5625 73.78125 133.734375 70.171875 C 132.847656 68.421875 132.695312 66.433594 133.304688 64.566406 C 133.914062 62.703125 135.207031 61.1875 136.953125 60.296875 C 138.035156 59.746094 139.210938 59.480469 140.390625 59.5 C 141.113281 59.515625 141.835938 59.636719 142.542969 59.867188 C 144.402344 60.476562 145.914062 61.773438 146.800781 63.523438 C 147.6875 65.273438 147.839844 67.261719 147.230469 69.128906 C 146.625 70.992188 145.328125 72.507812 143.585938 73.398438 Z M 149.757812 69.953125 C 150.585938 67.414062 150.378906 64.699219 149.171875 62.316406 C 147.964844 59.929688 145.902344 58.164062 143.367188 57.332031 C 140.832031 56.503906 138.125 56.710938 135.75 57.921875 C 133.371094 59.132812 131.605469 61.199219 130.777344 63.738281 C 129.949219 66.28125 130.160156 68.996094 131.367188 71.378906 C 133.09375 74.796875 136.523438 76.792969 140.105469 76.855469 C 141.679688 76.882812 143.285156 76.535156 144.785156 75.773438 C 147.164062 74.5625 148.929688 72.496094 149.757812 69.953125 Z M 159.117188 104.078125 C 157.371094 104.964844 155.386719 105.121094 153.523438 104.511719 C 151.664062 103.902344 150.152344 102.601562 149.265625 100.851562 C 147.4375 97.242188 148.882812 92.8125 152.484375 90.976562 C 156.085938 89.144531 160.503906 90.59375 162.332031 94.203125 C 164.160156 97.8125 162.71875 102.242188 159.117188 104.078125 Z M 164.703125 92.996094 C 162.210938 88.078125 156.191406 86.105469 151.28125 88.601562 C 146.375 91.101562 144.40625 97.136719 146.898438 102.058594 C 148.625 105.476562 152.058594 107.472656 155.636719 107.535156 C 157.214844 107.566406 158.816406 107.21875 160.320312 106.453125 C 165.226562 103.957031 167.195312 97.917969 164.703125 92.996094 "
            fill-opacity="1"
            fill-rule="nonzero"
          />
        </g>
      </g>
    </g>
    <g clip-path="url(#2ad4678830)">
      <g clip-path="url(#740a6d17b8)">
        <g clip-path="url(#22c4b2a1b0)">
          <path
            fill="#fffff2"
            d="M 268.222656 128.058594 C 268.046875 133.078125 267.875 138.101562 267.707031 143.125 C 267.617188 145.679688 268.433594 147.21875 266.851562 149.097656 L 204.980469 147.984375 C 204.246094 147.972656 203.640625 148.558594 203.628906 149.296875 C 203.625 149.484375 203.660156 149.664062 203.726562 149.828125 C 203.796875 149.992188 203.898438 150.140625 204.023438 150.265625 C 203.6875 150.152344 203.476562 150.003906 203.414062 149.820312 C 203.402344 149.78125 203.390625 149.746094 203.390625 149.707031 C 203.414062 148.414062 203.320312 140.871094 203.261719 135.359375 C 203.1875 128.816406 201.160156 113.363281 203.3125 111.285156 C 204.96875 109.679688 207.644531 110.367188 210.738281 110.644531 C 214.941406 111.023438 213.964844 110.433594 214.765625 107.296875 C 215.65625 103.796875 215.109375 102.3125 218.839844 100.851562 C 221.113281 99.964844 226.09375 99.574219 228.316406 100.347656 C 233.136719 102.019531 230.472656 104.992188 231.882812 108.308594 C 232.882812 110.664062 237.109375 109.65625 240.050781 109.640625 C 239.78125 103.53125 238.867188 98.863281 245.742188 99.148438 C 249.515625 99.304688 254.554688 99.191406 256.058594 103.265625 C 256.582031 104.683594 255.464844 108.652344 256.355469 109.699219 C 257.550781 111.113281 266.652344 109.847656 268.066406 112.222656 C 270.171875 115.753906 268.355469 124.160156 268.222656 128.058594 "
            fill-opacity="1"
            fill-rule="nonzero"
          />
        </g>
      </g>
    </g>
    <g clip-path="url(#67491985ac)">
      <g clip-path="url(#82cc44bc1b)">
        <g clip-path="url(#5ebb019136)">
          <path
            fill="#fffff2"
            d="M 234.316406 187.625 C 233.824219 188.625 229.363281 187.929688 228.140625 187.910156 C 221.949219 187.796875 215.753906 187.6875 209.558594 187.574219 C 193.625 187.289062 177.695312 187 161.761719 186.714844 C 156.515625 186.621094 151.273438 186.527344 146.027344 186.433594 C 145.597656 186.425781 143.644531 186.6875 143.308594 186.382812 C 142.910156 186.023438 143.316406 183.300781 143.324219 182.753906 C 143.460938 175.195312 143.597656 167.636719 143.734375 160.082031 C 143.789062 157.007812 143.84375 153.9375 143.898438 150.867188 C 143.90625 150.515625 143.707031 149.140625 143.933594 148.863281 C 144.257812 148.476562 146.164062 148.792969 146.746094 148.800781 C 147.421875 148.816406 149.632812 149.15625 149.988281 148.695312 C 150.441406 148.109375 150.046875 145.417969 150.058594 144.695312 C 150.097656 142.671875 150.132812 140.652344 150.167969 138.632812 C 150.179688 137.996094 149.820312 135.480469 150.234375 134.992188 C 150.472656 134.710938 151.550781 134.894531 151.996094 134.902344 C 153.765625 134.9375 155.535156 134.96875 157.304688 135 C 159.34375 135.035156 161.382812 135.074219 163.421875 135.109375 C 164.511719 135.128906 166.414062 134.785156 167.4375 135.179688 C 168.132812 135.449219 167.941406 135.234375 167.929688 136.269531 C 167.910156 138.019531 167.867188 139.769531 167.835938 141.515625 C 167.800781 143.421875 167.765625 145.332031 167.734375 147.238281 C 167.722656 147.808594 167.503906 148.910156 167.878906 149.183594 C 168.570312 149.679688 171.320312 149.246094 172.15625 149.257812 C 174.09375 149.292969 176.027344 149.328125 177.964844 149.363281 C 178.433594 149.371094 180.28125 149.667969 180.605469 149.363281 C 180.96875 149.027344 180.660156 146.320312 180.671875 145.847656 C 180.707031 143.832031 180.742188 141.816406 180.777344 139.796875 C 180.792969 138.941406 180.378906 136.441406 180.851562 135.710938 C 181.414062 134.832031 186.078125 135.515625 187.265625 135.539062 C 189.320312 135.574219 191.378906 135.613281 193.433594 135.648438 C 194.757812 135.671875 196.601562 135.367188 197.878906 135.730469 C 198.785156 135.984375 198.359375 135.503906 198.554688 136.472656 C 198.859375 137.957031 198.496094 139.894531 198.46875 141.40625 C 198.433594 143.363281 198.398438 145.324219 198.363281 147.285156 C 198.355469 147.695312 198.085938 149.460938 198.371094 149.730469 C 198.808594 150.144531 201.546875 149.789062 202.140625 149.796875 C 202.566406 149.804688 202.988281 149.8125 203.414062 149.820312 C 203.476562 150.003906 203.6875 150.152344 204.023438 150.265625 C 204.261719 150.496094 204.578125 150.644531 204.929688 150.648438 L 235.082031 151.191406 C 235.09375 151.792969 234.945312 152.636719 234.941406 152.96875 C 234.921875 153.972656 234.90625 154.976562 234.886719 155.980469 C 234.878906 156.394531 234.871094 156.808594 234.863281 157.226562 C 234.792969 161.144531 234.722656 165.058594 234.652344 168.976562 C 234.613281 171.21875 234.574219 173.464844 234.53125 175.703125 C 234.503906 177.347656 234.472656 178.992188 234.445312 180.636719 C 234.417969 182.109375 234.390625 183.585938 234.363281 185.0625 C 234.351562 185.679688 234.597656 187.0625 234.316406 187.625 "
            fill-opacity="1"
            fill-rule="nonzero"
          />
        </g>
      </g>
    </g>
    <path
      fill="#fffff2"
      d="M 217.546875 180.328125 C 212.003906 182.757812 206.8125 186.03125 201.472656 188.867188 C 194.304688 192.675781 191.867188 194.210938 185.269531 182.511719 C 168.769531 153.265625 153.671875 122.84375 137.949219 93.148438 C 133.140625 84.070312 127.097656 74.433594 123.054688 65.019531 C 116.847656 50.5625 128.597656 50.316406 135.660156 46.5625 C 140.492188 43.996094 148.378906 36.117188 153.238281 40.996094 C 159.363281 47.140625 167.136719 67.242188 171.371094 75.242188 C 188.175781 106.976562 204.816406 138.375 222.734375 169.457031 C 231.257812 177.222656 220.292969 179.121094 217.546875 180.328125 "
      fill-opacity="1"
      fill-rule="nonzero"
    />
    <g clip-path="url(#c939f996ce)">
      <path
        fill="#fffff2"
        d="M 312.738281 153.75 C 311.261719 151.367188 302.046875 152.816406 300.804688 151.40625 C 299.882812 150.355469 300.945312 146.3125 300.386719 144.882812 C 298.785156 140.777344 293.671875 140.984375 289.839844 140.898438 C 282.855469 140.734375 283.867188 145.449219 284.253906 151.644531 C 282.875 151.675781 281.222656 151.921875 279.738281 151.949219 C 279.902344 152.171875 280 152.445312 280 152.746094 C 280 153.492188 279.398438 154.097656 278.652344 154.097656 L 246.078125 154.097656 C 246.074219 154.441406 245.871094 154.820312 245.863281 155.210938 C 245.84375 156.238281 245.992188 157.5 245.964844 158.957031 C 245.964844 159.378906 245.964844 159.796875 245.964844 160.21875 C 245.964844 164.195312 245.964844 168.167969 245.964844 172.144531 C 245.964844 174.417969 245.964844 176.695312 245.964844 178.96875 C 246.117188 184.097656 246.28125 189.828125 246.28125 190.941406 C 246.28125 192.757812 260.871094 191.207031 264.800781 191.191406 C 269.25 191.175781 273.695312 191.109375 278.140625 191.039062 C 283.082031 190.953125 288.023438 190.847656 292.964844 190.761719 C 295.835938 190.707031 309.378906 191.984375 311.683594 189.722656 C 313.929688 187.515625 312.890625 185.929688 312.9375 183.09375 C 313.019531 178 313.105469 172.902344 313.1875 167.804688 C 313.253906 163.851562 314.941406 157.296875 312.738281 153.75 Z M 165.066406 131.941406 C 165.347656 133.03125 161.46875 135.472656 160.511719 136.273438 C 155.691406 140.316406 150.867188 144.359375 146.042969 148.402344 C 133.632812 158.804688 121.222656 169.203125 108.816406 179.605469 C 104.730469 183.027344 100.648438 186.453125 96.5625 189.878906 C 96.226562 190.15625 94.902344 191.660156 94.445312 191.652344 C 93.902344 191.640625 92.402344 189.285156 92.046875 188.859375 C 87.136719 182.976562 82.222656 177.097656 77.3125 171.214844 C 75.316406 168.824219 73.320312 166.4375 71.324219 164.046875 C 71.097656 163.773438 70.03125 162.851562 70.019531 162.488281 C 70.007812 161.976562 71.683594 160.949219 72.136719 160.566406 C 72.660156 160.125 74.582031 158.914062 74.550781 158.324219 C 74.511719 157.574219 72.421875 155.773438 71.953125 155.210938 C 70.636719 153.640625 69.324219 152.066406 68.011719 150.492188 C 67.597656 150 65.652344 148.316406 65.644531 147.660156 C 65.640625 147.285156 66.589844 146.710938 66.9375 146.417969 C 68.316406 145.265625 69.691406 144.109375 71.070312 142.953125 C 72.660156 141.625 74.246094 140.292969 75.835938 138.960938 C 76.6875 138.25 77.914062 136.71875 78.960938 136.339844 C 79.675781 136.082031 79.382812 136.042969 80.0625 136.84375 C 81.210938 138.195312 82.335938 139.566406 83.472656 140.925781 C 84.714844 142.410156 85.953125 143.894531 87.191406 145.378906 C 87.5625 145.824219 88.128906 146.816406 88.59375 146.773438 C 89.457031 146.691406 91.273438 144.523438 91.925781 143.980469 C 93.433594 142.714844 94.941406 141.453125 96.449219 140.1875 C 96.8125 139.882812 98.429688 138.875 98.476562 138.425781 C 98.53125 137.929688 96.496094 136.054688 96.191406 135.691406 C 94.878906 134.121094 93.570312 132.550781 92.257812 130.984375 C 91.703125 130.316406 89.726562 128.675781 89.601562 127.800781 C 89.449219 126.753906 93.480469 124.167969 94.40625 123.394531 C 96.007812 122.050781 97.609375 120.710938 99.210938 119.367188 C 100.238281 118.503906 101.453125 117.039062 102.675781 116.464844 C 103.535156 116.058594 102.894531 115.976562 103.683594 116.585938 C 104.902344 117.523438 105.90625 119.246094 106.890625 120.421875 C 108.164062 121.945312 109.4375 123.472656 110.714844 124.996094 C 110.980469 125.316406 111.941406 126.847656 112.339844 126.867188 C 112.953125 126.894531 114.816406 124.792969 115.277344 124.40625 C 116.804688 123.128906 118.328125 121.847656 119.851562 120.570312 C 120.230469 120.25 122.304688 118.976562 122.351562 118.472656 C 122.394531 118.042969 120.671875 116.457031 120.414062 116.152344 C 119.113281 114.597656 117.816406 113.042969 116.519531 111.488281 C 115.789062 110.613281 113.847656 109.046875 113.546875 107.933594 C 113.367188 107.269531 113.347656 107.59375 114.039062 106.9375 C 115.207031 105.835938 116.523438 104.855469 117.75 103.824219 C 120.578125 101.457031 123.316406 98.871094 126.28125 96.679688 C 127.042969 96.113281 126.722656 96.078125 127.34375 96.371094 C 128.386719 96.863281 129.582031 99.050781 130.3125 99.925781 C 132.257812 102.253906 134.203125 104.582031 136.148438 106.910156 C 137.109375 106.105469 140.0625 102.859375 141.023438 103.15625 C 141.484375 103.300781 142.234375 104.609375 142.539062 104.96875 C 143.457031 106.074219 144.382812 107.179688 145.304688 108.28125 C 147.847656 111.332031 150.398438 114.378906 152.941406 117.425781 C 155.46875 120.453125 157.996094 123.476562 160.519531 126.5 C 161.480469 127.644531 162.4375 128.792969 163.394531 129.941406 C 163.796875 130.421875 164.902344 131.320312 165.066406 131.941406 "
        fill-opacity="1"
        fill-rule="nonzero"
      />
    </g>
    <path
      fill="#fffff2"
      d="M 280 152.746094 C 280 153.492188 279.398438 154.097656 278.652344 154.097656 L 215.457031 154.097656 C 215.097656 154.097656 214.773438 153.953125 214.53125 153.722656 C 214.402344 153.597656 214.296875 153.449219 214.222656 153.28125 C 214.152344 153.117188 214.109375 152.9375 214.109375 152.746094 C 214.109375 152 214.714844 151.394531 215.457031 151.394531 L 278.652344 151.394531 C 279.097656 151.394531 279.492188 151.613281 279.738281 151.949219 C 279.902344 152.171875 280 152.445312 280 152.746094 Z M 184.425781 138.53125 C 180.800781 140.453125 176.289062 139.066406 174.371094 135.4375 C 172.445312 131.808594 173.832031 127.289062 177.453125 125.363281 C 178.542969 124.785156 179.734375 124.492188 180.929688 124.492188 C 181.664062 124.492188 182.402344 124.601562 183.121094 124.824219 C 185.023438 125.40625 186.582031 126.695312 187.511719 128.457031 C 188.441406 130.214844 188.632812 132.230469 188.050781 134.132812 C 187.46875 136.035156 186.179688 137.597656 184.425781 138.53125 Z M 190.632812 134.925781 C 191.425781 132.332031 191.164062 129.585938 189.894531 127.191406 C 188.625 124.792969 186.5 123.035156 183.914062 122.238281 C 181.324219 121.445312 178.582031 121.707031 176.191406 122.976562 C 171.253906 125.601562 169.367188 131.757812 171.984375 136.707031 C 173.804688 140.140625 177.324219 142.097656 180.957031 142.097656 C 182.558594 142.097656 184.179688 141.71875 185.691406 140.917969 C 188.082031 139.648438 189.835938 137.519531 190.632812 134.925781 Z M 200.753906 169.367188 C 199 170.296875 196.984375 170.488281 195.085938 169.90625 C 193.1875 169.324219 191.628906 168.03125 190.695312 166.273438 C 189.765625 164.515625 189.574219 162.5 190.15625 160.597656 C 190.738281 158.695312 192.027344 157.132812 193.785156 156.199219 C 194.871094 155.621094 196.058594 155.328125 197.257812 155.328125 C 197.992188 155.328125 198.730469 155.4375 199.449219 155.65625 C 201.351562 156.242188 202.90625 157.53125 203.839844 159.289062 C 205.761719 162.921875 204.375 167.4375 200.753906 169.367188 Z M 200.242188 153.074219 C 197.652344 152.277344 194.910156 152.542969 192.519531 153.8125 C 190.125 155.082031 188.371094 157.210938 187.578125 159.804688 C 186.78125 162.394531 187.042969 165.144531 188.3125 167.542969 C 189.582031 169.9375 191.707031 171.695312 194.296875 172.488281 C 195.277344 172.792969 196.28125 172.941406 197.28125 172.941406 C 198.914062 172.941406 200.53125 172.542969 202.015625 171.75 C 206.957031 169.128906 208.84375 162.96875 206.222656 158.023438 C 204.953125 155.628906 202.828125 153.871094 200.242188 153.074219 Z M 151.773438 76.859375 C 148.148438 78.78125 143.636719 77.394531 141.710938 73.765625 C 140.78125 72.007812 140.589844 69.992188 141.175781 68.089844 C 141.757812 66.1875 143.042969 64.625 144.800781 63.691406 C 145.890625 63.113281 147.078125 62.820312 148.277344 62.820312 C 149.007812 62.820312 149.746094 62.929688 150.464844 63.152344 C 152.367188 63.738281 153.925781 65.027344 154.855469 66.785156 C 155.785156 68.542969 155.980469 70.558594 155.394531 72.460938 C 154.8125 74.363281 153.523438 75.925781 151.773438 76.859375 Z M 157.976562 73.253906 C 158.769531 70.660156 158.507812 67.914062 157.242188 65.515625 C 155.972656 63.121094 153.847656 61.363281 151.257812 60.566406 C 148.667969 59.773438 145.925781 60.035156 143.535156 61.304688 C 141.140625 62.578125 139.386719 64.703125 138.59375 67.296875 C 137.800781 69.890625 138.0625 72.636719 139.332031 75.035156 C 141.148438 78.46875 144.667969 80.429688 148.300781 80.429688 C 149.902344 80.429688 151.527344 80.046875 153.035156 79.246094 C 155.425781 77.976562 157.179688 75.847656 157.976562 73.253906 Z M 168.097656 107.695312 C 166.34375 108.625 164.332031 108.820312 162.429688 108.234375 C 160.53125 107.652344 158.972656 106.359375 158.039062 104.601562 C 156.121094 100.972656 157.503906 96.453125 161.125 94.527344 C 164.75 92.605469 169.261719 93.992188 171.183594 97.621094 C 173.105469 101.25 171.722656 105.769531 168.097656 107.695312 Z M 173.566406 96.351562 C 170.949219 91.40625 164.800781 89.519531 159.863281 92.140625 C 154.925781 94.765625 153.039062 100.921875 155.65625 105.871094 C 157.476562 109.304688 160.996094 111.265625 164.628906 111.265625 C 166.230469 111.265625 167.851562 110.882812 169.363281 110.082031 C 174.300781 107.460938 176.1875 101.300781 173.566406 96.351562 "
      fill-opacity="1"
      fill-rule="nonzero"
    />
    <path
      fill="#fffff2"
      d="M 279.296875 130.027344 C 279.214844 135.125 279.128906 140.222656 279.046875 145.316406 C 279.003906 147.910156 279.859375 149.460938 278.292969 151.394531 L 215.457031 151.394531 C 214.714844 151.394531 214.109375 152 214.109375 152.746094 C 214.109375 152.9375 214.152344 153.117188 214.222656 153.28125 C 214.296875 153.449219 214.402344 153.597656 214.53125 153.722656 C 214.1875 153.613281 213.96875 153.46875 213.902344 153.28125 C 213.890625 153.246094 213.875 153.207031 213.875 153.167969 C 213.875 151.859375 213.644531 144.207031 213.484375 138.617188 C 213.292969 131.984375 210.949219 116.34375 213.09375 114.195312 C 214.746094 112.539062 217.480469 113.1875 220.625 113.414062 C 224.894531 113.722656 223.894531 113.140625 224.648438 109.945312 C 225.492188 106.375 224.90625 104.882812 228.667969 103.332031 C 230.960938 102.390625 236.011719 101.90625 238.28125 102.648438 C 243.203125 104.257812 240.554688 107.324219 242.046875 110.660156 C 243.105469 113.027344 247.375 111.929688 250.363281 111.863281 C 249.976562 105.667969 248.964844 100.953125 255.949219 101.117188 C 259.78125 101.203125 264.894531 100.996094 266.496094 105.101562 C 267.050781 106.53125 265.992188 110.574219 266.914062 111.625 C 268.152344 113.035156 277.371094 111.585938 278.847656 113.96875 C 281.054688 117.515625 279.359375 126.074219 279.296875 130.027344 "
      fill-opacity="1"
      fill-rule="nonzero"
    />
    <path
      fill="#fffff2"
      d="M 245.964844 191.066406 C 245.484375 192.085938 240.941406 191.464844 239.699219 191.464844 C 233.410156 191.464844 227.121094 191.464844 220.828125 191.464844 C 204.648438 191.464844 188.46875 191.464844 172.292969 191.464844 C 166.964844 191.464844 161.640625 191.464844 156.3125 191.464844 C 155.878906 191.464844 153.898438 191.765625 153.550781 191.464844 C 153.144531 191.105469 153.503906 188.335938 153.503906 187.78125 C 153.503906 180.113281 153.503906 172.445312 153.503906 164.777344 C 153.503906 161.660156 153.503906 158.546875 153.503906 155.429688 C 153.503906 155.074219 153.277344 153.679688 153.503906 153.398438 C 153.824219 152.996094 155.765625 153.28125 156.355469 153.28125 C 157.042969 153.28125 159.292969 153.585938 159.644531 153.117188 C 160.097656 152.515625 159.644531 149.789062 159.644531 149.054688 C 159.644531 147.003906 159.644531 144.957031 159.644531 142.902344 C 159.644531 142.261719 159.234375 139.714844 159.644531 139.210938 C 159.882812 138.921875 160.980469 139.089844 161.433594 139.089844 C 163.226562 139.089844 165.027344 139.089844 166.824219 139.089844 C 168.894531 139.089844 170.964844 139.089844 173.039062 139.089844 C 174.144531 139.089844 176.066406 138.703125 177.113281 139.089844 C 177.824219 139.351562 177.625 139.132812 177.632812 140.183594 C 177.644531 141.957031 177.632812 143.734375 177.632812 145.507812 C 177.632812 147.441406 177.632812 149.378906 177.632812 151.3125 C 177.632812 151.894531 177.429688 153.015625 177.816406 153.28125 C 178.527344 153.773438 181.3125 153.28125 182.160156 153.28125 C 184.125 153.28125 186.09375 153.28125 188.0625 153.28125 C 188.535156 153.28125 190.417969 153.546875 190.742188 153.234375 C 191.101562 152.886719 190.742188 150.144531 190.742188 149.667969 C 190.742188 147.621094 190.742188 145.574219 190.742188 143.527344 C 190.742188 142.660156 190.277344 140.132812 190.742188 139.382812 C 191.296875 138.480469 196.042969 139.089844 197.25 139.089844 C 199.335938 139.089844 201.425781 139.089844 203.511719 139.089844 C 204.855469 139.089844 206.726562 138.746094 208.027344 139.089844 C 208.949219 139.332031 208.511719 138.855469 208.726562 139.832031 C 209.0625 141.335938 208.726562 143.304688 208.726562 144.835938 C 208.726562 146.824219 208.726562 148.8125 208.726562 150.800781 C 208.726562 151.21875 208.484375 153.011719 208.78125 153.28125 C 209.230469 153.695312 212.003906 153.28125 212.609375 153.28125 C 213.042969 153.28125 213.472656 153.28125 213.902344 153.28125 C 213.96875 153.46875 214.1875 153.613281 214.53125 153.722656 C 214.773438 153.953125 215.097656 154.097656 215.457031 154.097656 L 246.078125 154.097656 C 246.097656 154.707031 245.964844 155.5625 245.964844 155.902344 C 245.964844 156.917969 245.964844 157.9375 245.964844 158.957031 C 245.964844 159.378906 245.964844 159.796875 245.964844 160.21875 C 245.964844 164.195312 245.964844 168.167969 245.964844 172.144531 C 245.964844 174.417969 245.964844 176.695312 245.964844 178.96875 C 245.964844 180.636719 245.964844 182.304688 245.964844 183.972656 C 245.964844 185.46875 245.964844 186.964844 245.964844 188.460938 C 245.964844 189.089844 246.238281 190.488281 245.964844 191.066406 "
      fill-opacity="1"
      fill-rule="nonzero"
    />
    <path
      fill="#51b59f"
      d="M 229.460938 217.441406 C 221.085938 221.105469 213.242188 226.039062 205.179688 230.3125 C 194.351562 236.054688 190.671875 238.367188 180.703125 220.734375 C 155.78125 176.65625 132.972656 130.804688 109.222656 86.050781 C 101.960938 72.367188 92.828125 57.84375 86.722656 43.652344 C 77.347656 21.867188 95.09375 21.496094 105.765625 15.839844 C 113.066406 11.972656 124.976562 0.0976562 132.316406 7.453125 C 141.570312 16.710938 153.3125 47.007812 159.710938 59.058594 C 185.09375 106.890625 210.226562 154.210938 237.292969 201.054688 C 250.171875 212.765625 233.609375 215.625 229.460938 217.441406 "
      fill-opacity="1"
      fill-rule="nonzero"
    />
    <g clip-path="url(#18ffaec80a)">
      <path
        fill="#f06525"
        d="M 373.253906 177.382812 C 371.023438 173.796875 357.101562 175.976562 355.226562 173.851562 C 353.832031 172.269531 355.4375 166.175781 354.59375 164.023438 C 352.179688 157.832031 344.453125 158.148438 338.664062 158.015625 C 328.113281 157.765625 329.644531 164.875 330.222656 174.210938 C 328.140625 174.257812 325.648438 174.632812 323.40625 174.671875 C 323.652344 175.007812 323.800781 175.421875 323.800781 175.871094 C 323.800781 176.996094 322.890625 177.90625 321.765625 177.90625 L 272.558594 177.90625 C 272.554688 178.429688 272.242188 178.996094 272.234375 179.585938 C 272.203125 181.136719 272.425781 183.035156 272.390625 185.230469 C 272.390625 185.867188 272.390625 186.5 272.390625 187.136719 C 272.390625 193.128906 272.390625 199.117188 272.390625 205.105469 C 272.390625 208.535156 272.390625 211.964844 272.390625 215.390625 C 272.617188 223.121094 272.867188 231.757812 272.867188 233.441406 C 272.867188 236.171875 294.902344 233.839844 300.84375 233.816406 C 307.558594 233.789062 314.273438 233.691406 320.992188 233.582031 C 328.457031 233.453125 335.917969 233.296875 343.382812 233.164062 C 347.71875 233.085938 368.179688 235.011719 371.660156 231.601562 C 375.054688 228.277344 373.484375 225.882812 373.554688 221.613281 C 373.679688 213.929688 373.808594 206.25 373.933594 198.566406 C 374.03125 192.609375 376.582031 182.726562 373.253906 177.382812 Z M 150.183594 144.515625 C 150.613281 146.160156 144.746094 149.839844 143.304688 151.042969 C 136.023438 157.136719 128.734375 163.230469 121.445312 169.328125 C 102.703125 185 83.957031 200.675781 65.214844 216.351562 C 59.042969 221.511719 52.875 226.671875 46.703125 231.835938 C 46.199219 232.253906 44.199219 234.523438 43.503906 234.507812 C 42.683594 234.492188 40.421875 230.941406 39.882812 230.300781 C 32.464844 221.4375 25.042969 212.574219 17.621094 203.710938 C 14.609375 200.105469 11.59375 196.507812 8.578125 192.902344 C 8.234375 192.492188 6.625 191.105469 6.609375 190.554688 C 6.59375 189.78125 9.121094 188.234375 9.804688 187.660156 C 10.597656 186.996094 13.503906 185.167969 13.453125 184.28125 C 13.398438 183.144531 10.234375 180.433594 9.527344 179.585938 C 7.542969 177.21875 5.558594 174.847656 3.574219 172.476562 C 2.953125 171.734375 0.0117188 169.195312 0 168.207031 C -0.00390625 167.640625 1.429688 166.777344 1.953125 166.335938 C 4.035156 164.597656 6.113281 162.855469 8.195312 161.113281 C 10.597656 159.109375 12.996094 157.101562 15.398438 155.09375 C 16.679688 154.023438 18.535156 151.714844 20.117188 151.144531 C 21.195312 150.757812 20.753906 150.699219 21.78125 151.90625 C 23.511719 153.945312 25.214844 156.007812 26.933594 158.058594 C 28.804688 160.296875 30.679688 162.53125 32.550781 164.769531 C 33.109375 165.4375 33.960938 166.933594 34.667969 166.867188 C 35.96875 166.746094 38.71875 163.480469 39.699219 162.660156 C 41.980469 160.753906 44.257812 158.851562 46.535156 156.941406 C 47.082031 156.484375 49.523438 154.964844 49.59375 154.292969 C 49.675781 153.539062 46.601562 150.71875 46.140625 150.167969 C 44.164062 147.804688 42.183594 145.4375 40.199219 143.070312 C 39.363281 142.066406 36.378906 139.597656 36.1875 138.277344 C 35.960938 136.699219 42.050781 132.804688 43.445312 131.636719 C 45.867188 129.613281 48.285156 127.589844 50.703125 125.566406 C 52.257812 124.265625 54.089844 122.058594 55.9375 121.191406 C 57.238281 120.582031 56.265625 120.453125 57.464844 121.375 C 59.300781 122.785156 60.820312 125.382812 62.304688 127.152344 C 64.230469 129.453125 66.15625 131.753906 68.082031 134.050781 C 68.480469 134.535156 69.9375 136.839844 70.539062 136.867188 C 71.460938 136.90625 74.277344 133.742188 74.976562 133.15625 C 77.28125 131.230469 79.582031 129.304688 81.882812 127.378906 C 82.457031 126.898438 85.589844 124.976562 85.664062 124.21875 C 85.726562 123.566406 83.121094 121.183594 82.734375 120.71875 C 80.769531 118.378906 78.808594 116.035156 76.851562 113.6875 C 75.746094 112.375 72.816406 110.011719 72.363281 108.332031 C 72.09375 107.332031 72.058594 107.820312 73.105469 106.832031 C 74.867188 105.171875 76.855469 103.695312 78.710938 102.144531 C 82.980469 98.574219 87.117188 94.675781 91.59375 91.371094 C 92.75 90.515625 92.265625 90.464844 93.203125 90.90625 C 94.773438 91.648438 96.585938 94.945312 97.6875 96.265625 C 100.625 99.769531 103.5625 103.28125 106.503906 106.789062 C 107.953125 105.578125 112.414062 100.6875 113.863281 101.136719 C 114.566406 101.351562 115.699219 103.324219 116.152344 103.867188 C 117.542969 105.53125 118.9375 107.199219 120.332031 108.859375 C 124.175781 113.453125 128.023438 118.046875 131.871094 122.640625 C 135.6875 127.199219 139.5 131.757812 143.316406 136.316406 C 144.765625 138.042969 146.214844 139.773438 147.660156 141.503906 C 148.269531 142.226562 149.9375 143.582031 150.183594 144.515625 "
        fill-opacity="1"
        fill-rule="nonzero"
      />
    </g>
    <path
      fill="#103c76"
      d="M 323.800781 175.871094 C 323.800781 176.996094 322.890625 177.90625 321.765625 177.90625 L 226.304688 177.90625 C 225.761719 177.90625 225.273438 177.691406 224.90625 177.347656 C 224.707031 177.15625 224.546875 176.933594 224.4375 176.679688 C 224.332031 176.429688 224.269531 176.160156 224.269531 175.871094 C 224.269531 174.746094 225.179688 173.832031 226.304688 173.832031 L 321.765625 173.832031 C 322.441406 173.832031 323.035156 174.167969 323.40625 174.671875 C 323.652344 175.007812 323.800781 175.421875 323.800781 175.871094 Z M 179.429688 154.445312 C 173.953125 157.347656 167.140625 155.257812 164.238281 149.785156 C 161.332031 144.316406 163.425781 137.507812 168.898438 134.601562 C 170.542969 133.730469 172.339844 133.289062 174.148438 133.289062 C 175.253906 133.289062 176.371094 133.457031 177.460938 133.789062 C 180.328125 134.667969 182.683594 136.613281 184.089844 139.261719 C 185.496094 141.914062 185.785156 144.949219 184.90625 147.816406 C 184.023438 150.6875 182.078125 153.039062 179.429688 154.445312 Z M 188.804688 149.015625 C 190.003906 145.105469 189.609375 140.964844 187.691406 137.355469 C 185.773438 133.742188 182.5625 131.09375 178.652344 129.894531 C 174.746094 128.695312 170.601562 129.089844 166.988281 131.007812 C 159.53125 134.960938 156.679688 144.242188 160.636719 151.695312 C 163.382812 156.871094 168.699219 159.824219 174.191406 159.824219 C 176.605469 159.824219 179.058594 159.253906 181.339844 158.046875 C 184.953125 156.128906 187.601562 152.921875 188.804688 149.015625 Z M 204.09375 200.917969 C 201.441406 202.324219 198.398438 202.613281 195.53125 201.734375 C 192.664062 200.855469 190.308594 198.910156 188.902344 196.261719 C 187.496094 193.609375 187.207031 190.574219 188.085938 187.703125 C 188.964844 184.835938 190.910156 182.484375 193.5625 181.078125 C 195.207031 180.207031 197.003906 179.765625 198.8125 179.765625 C 199.917969 179.765625 201.035156 179.925781 202.125 180.261719 C 204.992188 181.140625 207.347656 183.085938 208.753906 185.734375 C 211.65625 191.207031 209.566406 198.015625 204.09375 200.917969 Z M 203.316406 176.367188 C 199.40625 175.164062 195.261719 175.5625 191.652344 177.476562 C 188.039062 179.390625 185.386719 182.601562 184.1875 186.507812 C 182.988281 190.414062 183.382812 194.558594 185.300781 198.171875 C 187.21875 201.78125 190.425781 204.429688 194.335938 205.628906 C 195.820312 206.085938 197.335938 206.308594 198.847656 206.308594 C 201.3125 206.308594 203.757812 205.707031 206 204.515625 C 213.460938 200.566406 216.3125 191.28125 212.355469 183.824219 C 210.4375 180.214844 207.226562 177.566406 203.316406 176.367188 Z M 130.101562 61.5 C 124.625 64.398438 117.8125 62.308594 114.90625 56.839844 C 113.5 54.1875 113.210938 51.152344 114.09375 48.285156 C 114.972656 45.414062 116.917969 43.0625 119.570312 41.65625 C 121.214844 40.785156 123.011719 40.34375 124.820312 40.34375 C 125.929688 40.34375 127.042969 40.507812 128.128906 40.84375 C 131 41.722656 133.355469 43.664062 134.761719 46.316406 C 136.167969 48.964844 136.457031 52.003906 135.578125 54.871094 C 134.695312 57.738281 132.75 60.09375 130.101562 61.5 Z M 139.476562 56.066406 C 140.675781 52.160156 140.28125 48.015625 138.363281 44.40625 C 136.445312 40.792969 133.234375 38.144531 129.328125 36.945312 C 125.414062 35.75 121.273438 36.144531 117.660156 38.058594 C 114.042969 39.976562 111.394531 43.179688 110.195312 47.085938 C 108.996094 51 109.390625 55.136719 111.308594 58.75 C 114.054688 63.925781 119.367188 66.882812 124.859375 66.882812 C 127.277344 66.882812 129.730469 66.304688 132.011719 65.097656 C 135.625 63.183594 138.273438 59.976562 139.476562 56.066406 Z M 154.765625 107.972656 C 152.113281 109.378906 149.074219 109.667969 146.203125 108.789062 C 143.332031 107.910156 140.980469 105.964844 139.570312 103.3125 C 136.667969 97.84375 138.761719 91.03125 144.234375 88.128906 C 149.707031 85.230469 156.523438 87.320312 159.425781 92.789062 C 162.328125 98.257812 160.238281 105.070312 154.765625 107.972656 Z M 163.027344 90.878906 C 159.070312 83.425781 149.785156 80.578125 142.324219 84.53125 C 134.867188 88.488281 132.015625 97.769531 135.972656 105.222656 C 138.71875 110.398438 144.035156 113.355469 149.527344 113.355469 C 151.941406 113.355469 154.394531 112.78125 156.675781 111.574219 C 164.132812 107.617188 166.984375 98.335938 163.027344 90.878906 "
      fill-opacity="1"
      fill-rule="nonzero"
    />
    <path
      fill="#ffde59"
      d="M 322.738281 141.632812 C 322.609375 149.3125 322.488281 156.996094 322.363281 164.675781 C 322.292969 168.585938 323.589844 170.917969 321.21875 173.832031 L 226.304688 173.832031 C 225.179688 173.832031 224.269531 174.746094 224.269531 175.871094 C 224.269531 176.160156 224.332031 176.429688 224.4375 176.679688 C 224.546875 176.933594 224.707031 177.15625 224.90625 177.347656 C 224.386719 177.175781 224.054688 176.960938 223.957031 176.679688 C 223.933594 176.621094 223.914062 176.566406 223.914062 176.507812 C 223.914062 174.53125 223.566406 163.003906 223.324219 154.578125 C 223.03125 144.582031 219.496094 121.011719 222.734375 117.773438 C 225.230469 115.277344 229.359375 116.253906 234.109375 116.59375 C 240.5625 117.054688 239.046875 116.183594 240.191406 111.363281 C 241.460938 105.988281 240.578125 103.734375 246.261719 101.398438 C 249.71875 99.980469 257.351562 99.25 260.777344 100.367188 C 268.21875 102.792969 264.214844 107.414062 266.46875 112.441406 C 268.066406 116.011719 274.519531 114.355469 279.027344 114.253906 C 278.449219 104.917969 276.917969 97.8125 287.46875 98.058594 C 293.257812 98.191406 300.984375 97.878906 303.402344 104.066406 C 304.242188 106.21875 302.636719 112.316406 304.03125 113.894531 C 305.90625 116.019531 319.828125 113.839844 322.0625 117.429688 C 325.390625 122.773438 322.835938 135.671875 322.738281 141.632812 "
      fill-opacity="1"
      fill-rule="nonzero"
    />
    <path
      fill="#5271ff"
      d="M 272.390625 233.625 C 271.660156 235.164062 264.800781 234.222656 262.925781 234.222656 C 253.425781 234.222656 243.917969 234.222656 234.417969 234.222656 C 209.976562 234.222656 185.539062 234.222656 161.101562 234.222656 C 153.050781 234.222656 145.007812 234.222656 136.960938 234.222656 C 136.304688 234.222656 133.3125 234.679688 132.792969 234.222656 C 132.171875 233.683594 132.71875 229.507812 132.71875 228.671875 C 132.71875 217.117188 132.71875 205.5625 132.71875 194.003906 C 132.71875 189.308594 132.71875 184.613281 132.71875 179.914062 C 132.71875 179.378906 132.375 177.28125 132.71875 176.851562 C 133.199219 176.25 136.136719 176.679688 137.027344 176.679688 C 138.0625 176.679688 141.464844 177.140625 141.996094 176.429688 C 142.675781 175.523438 141.996094 171.414062 141.996094 170.308594 C 141.996094 167.21875 141.996094 164.128906 141.996094 161.039062 C 141.996094 160.070312 141.371094 156.234375 141.996094 155.472656 C 142.355469 155.035156 144.011719 155.289062 144.695312 155.289062 C 147.40625 155.289062 150.125 155.289062 152.835938 155.289062 C 155.964844 155.289062 159.097656 155.289062 162.226562 155.289062 C 163.894531 155.289062 166.804688 154.710938 168.382812 155.289062 C 169.453125 155.683594 169.15625 155.359375 169.167969 156.941406 C 169.1875 159.613281 169.167969 162.289062 169.167969 164.964844 C 169.167969 167.878906 169.167969 170.796875 169.167969 173.714844 C 169.167969 174.585938 168.863281 176.277344 169.441406 176.679688 C 170.519531 177.421875 174.722656 176.679688 176.003906 176.679688 C 178.976562 176.679688 181.949219 176.679688 184.917969 176.679688 C 185.632812 176.679688 188.476562 177.082031 188.96875 176.609375 C 189.511719 176.085938 188.96875 171.953125 188.96875 171.230469 C 188.96875 168.148438 188.96875 165.066406 188.96875 161.980469 C 188.96875 160.671875 188.265625 156.859375 188.96875 155.730469 C 189.808594 154.375 196.980469 155.289062 198.796875 155.289062 C 201.953125 155.289062 205.105469 155.289062 208.261719 155.289062 C 210.289062 155.289062 213.113281 154.773438 215.082031 155.289062 C 216.472656 155.65625 215.8125 154.9375 216.140625 156.410156 C 216.640625 158.671875 216.140625 161.640625 216.140625 163.949219 C 216.140625 166.945312 216.140625 169.945312 216.140625 172.941406 C 216.140625 173.570312 215.773438 176.273438 216.21875 176.679688 C 216.898438 177.300781 221.089844 176.679688 222.003906 176.679688 C 222.65625 176.679688 223.304688 176.679688 223.957031 176.679688 C 224.054688 176.960938 224.386719 177.175781 224.90625 177.347656 C 225.273438 177.691406 225.761719 177.90625 226.304688 177.90625 L 272.558594 177.90625 C 272.589844 178.828125 272.390625 180.117188 272.390625 180.628906 C 272.390625 182.164062 272.390625 183.695312 272.390625 185.230469 C 272.390625 185.867188 272.390625 186.5 272.390625 187.136719 C 272.390625 193.128906 272.390625 199.117188 272.390625 205.105469 C 272.390625 208.535156 272.390625 211.964844 272.390625 215.390625 C 272.390625 217.910156 272.390625 220.421875 272.390625 222.933594 C 272.390625 225.191406 272.390625 227.445312 272.390625 229.699219 C 272.390625 230.644531 272.800781 232.753906 272.390625 233.625 "
      fill-opacity="1"
      fill-rule="nonzero"
    />
    <g fill="#f06525" fill-opacity="1">
      <g transform="translate(99.761717, 298.355649)">
        <g>
          <path
            d="M 55.671875 -31.4375 C 52.851562 -33.597656 46.074219 -37.433594 41.753906 -39.355469 L 39.414062 -35.636719 C 43.375 -33.835938 49.792969 -30.175781 52.972656 -27.476562 Z M 34.074219 -40.433594 C 31.074219 -39.476562 27.957031 -38.753906 24.835938 -38.273438 C 25.796875 -41.695312 26.578125 -45.292969 27.175781 -47.453125 L 21.835938 -47.933594 C 21.71875 -44.753906 20.878906 -40.976562 19.976562 -37.675781 C 17.699219 -37.496094 15.476562 -37.375 13.378906 -37.375 C 10.796875 -37.375 8.277344 -37.496094 6.058594 -37.796875 L 6.417969 -33.296875 C 8.640625 -33.175781 11.097656 -33.117188 13.316406 -33.117188 C 15.058594 -33.117188 16.796875 -33.175781 18.539062 -33.296875 C 15.839844 -26.335938 10.796875 -16.859375 5.820312 -11.097656 L 10.5 -8.699219 C 15.238281 -15.117188 20.515625 -25.4375 23.457031 -33.835938 C 27.355469 -34.316406 31.074219 -35.09375 34.195312 -35.996094 Z M 37.195312 -7.257812 C 37.195312 -4.320312 35.574219 -1.621094 30.714844 -1.621094 C 26.097656 -1.621094 23.878906 -3.480469 23.878906 -6.238281 C 23.878906 -8.9375 26.757812 -10.917969 31.136719 -10.917969 C 33.234375 -10.917969 35.277344 -10.617188 37.136719 -10.078125 C 37.195312 -9 37.195312 -8.039062 37.195312 -7.257812 Z M 36.355469 -29.097656 C 36.476562 -24.957031 36.777344 -19.136719 36.957031 -14.277344 C 35.214844 -14.636719 33.296875 -14.816406 31.316406 -14.816406 C 24.597656 -14.816406 19.4375 -11.277344 19.4375 -5.820312 C 19.4375 0.0585938 24.777344 2.757812 31.316406 2.757812 C 38.636719 2.757812 41.753906 -1.140625 41.753906 -5.878906 C 41.753906 -6.539062 41.753906 -7.378906 41.695312 -8.277344 C 45.535156 -6.417969 48.714844 -3.78125 51.234375 -1.5 L 53.8125 -5.578125 C 50.753906 -8.21875 46.613281 -11.160156 41.515625 -13.019531 C 41.394531 -16.617188 41.15625 -20.515625 41.09375 -22.675781 C 41.035156 -24.898438 40.976562 -26.636719 41.15625 -29.097656 Z M 36.355469 -29.097656 "
          />
        </g>
      </g>
    </g>
    <g fill="#5271ff" fill-opacity="1">
      <g transform="translate(159.749994, 298.355649)">
        <g>
          <path
            d="M 58.433594 -42.59375 C 57.292969 -44.8125 54.953125 -48.59375 53.394531 -50.753906 L 50.214844 -49.433594 C 51.894531 -47.152344 53.875 -43.734375 55.191406 -41.15625 Z M 51.714844 -40.136719 C 50.453125 -42.535156 48.234375 -46.253906 46.734375 -48.355469 L 43.554688 -47.035156 C 45.175781 -44.753906 47.214844 -41.09375 48.414062 -38.695312 Z M 19.917969 -46.972656 C 19.976562 -42.953125 19.257812 -38.335938 18.417969 -34.074219 C 14.816406 -33.777344 11.398438 -33.476562 9.417969 -33.414062 C 7.5 -33.355469 6 -33.355469 4.140625 -33.414062 L 4.621094 -28.195312 C 6.121094 -28.496094 8.519531 -28.738281 9.957031 -28.917969 C 11.519531 -29.097656 14.339844 -29.394531 17.457031 -29.695312 C 15.417969 -21.777344 11.039062 -8.398438 4.980469 -0.300781 L 9.839844 1.679688 C 16.078125 -8.277344 20.15625 -21.65625 22.316406 -30.175781 C 24.898438 -30.417969 27.238281 -30.597656 28.675781 -30.597656 C 32.515625 -30.597656 34.976562 -29.636719 34.976562 -24.238281 C 34.976562 -17.816406 34.074219 -10.078125 32.15625 -6.121094 C 30.894531 -3.539062 29.15625 -3.058594 26.996094 -3.058594 C 25.316406 -3.058594 22.195312 -3.539062 19.675781 -4.378906 L 20.457031 0.71875 C 22.378906 1.140625 25.195312 1.558594 27.476562 1.558594 C 31.316406 1.558594 34.253906 0.601562 36.175781 -3.359375 C 38.636719 -8.339844 39.59375 -17.699219 39.59375 -24.777344 C 39.59375 -32.816406 35.277344 -34.914062 29.9375 -34.914062 C 28.496094 -34.914062 26.035156 -34.734375 23.277344 -34.496094 C 23.9375 -37.675781 24.476562 -41.15625 24.835938 -42.894531 C 25.015625 -44.09375 25.316406 -45.292969 25.558594 -46.433594 Z M 41.574219 -37.617188 C 45.714844 -32.757812 50.394531 -22.378906 52.195312 -16.257812 L 56.8125 -18.539062 C 54.832031 -24.058594 49.671875 -34.855469 45.953125 -39.65625 Z M 41.574219 -37.617188 "
          />
        </g>
      </g>
    </g>
    <g fill="#51b59f" fill-opacity="1">
      <g transform="translate(219.738275, 298.355649)">
        <g>
          <path
            d="M 12.660156 -16.078125 C 12 -13.917969 11.277344 -11.160156 11.277344 -8.640625 C 11.277344 -1.199219 17.519531 2.460938 28.136719 2.460938 C 32.996094 2.460938 38.753906 1.980469 42.476562 1.320312 L 42.59375 -3.539062 C 38.394531 -2.578125 32.757812 -2.160156 27.957031 -2.160156 C 19.496094 -2.160156 15.898438 -5.039062 15.898438 -9.597656 C 15.898438 -11.160156 16.558594 -13.796875 17.277344 -15.65625 Z M 50.515625 -32.335938 C 47.8125 -31.316406 44.214844 -30.234375 39.535156 -29.394531 C 38.515625 -31.617188 37.675781 -33.476562 37.195312 -34.734375 L 36.117188 -37.195312 C 40.195312 -37.855469 44.09375 -38.753906 47.152344 -39.714844 L 46.3125 -43.972656 C 42.835938 -42.714844 38.636719 -41.816406 34.496094 -41.15625 C 33.597656 -43.433594 32.816406 -45.714844 32.277344 -47.753906 L 26.875 -46.613281 C 27.65625 -45.355469 28.195312 -44.273438 29.097656 -42.414062 C 29.335938 -41.875 29.578125 -41.273438 29.875 -40.613281 C 24.175781 -40.195312 17.519531 -40.316406 10.4375 -41.09375 L 10.738281 -36.714844 C 18.117188 -36.054688 25.617188 -36.054688 31.617188 -36.59375 C 32.035156 -35.636719 32.457031 -34.554688 32.9375 -33.535156 L 35.035156 -28.675781 C 27.957031 -27.777344 19.136719 -27.714844 10.078125 -28.554688 L 10.257812 -24.175781 C 19.4375 -23.578125 29.15625 -23.695312 36.835938 -24.71875 C 38.214844 -21.597656 39.59375 -18.476562 40.734375 -16.136719 C 38.875 -16.316406 36.054688 -16.617188 33.175781 -16.976562 L 32.757812 -13.316406 C 36.535156 -12.839844 41.335938 -12.179688 44.335938 -11.636719 L 46.675781 -14.578125 C 44.996094 -17.699219 43.074219 -21.71875 41.335938 -25.496094 C 45.355469 -26.277344 48.773438 -27.117188 51.414062 -28.015625 Z M 50.515625 -32.335938 "
          />
        </g>
      </g>
    </g>
    <g fill="#103c76" fill-opacity="1">
      <g transform="translate(89.754913, 348.749977)">
        <g>
          <path
            d="M 37.957031 -29.078125 C 37.117188 -30.277344 35.277344 -31.957031 33.71875 -33.117188 L 31.957031 -31.796875 C 33.4375 -30.636719 35.277344 -28.796875 36.117188 -27.558594 Z M 25.917969 -13.597656 L 25.917969 -7.28125 L 22.558594 -7.28125 L 22.558594 -13.597656 Z M 27.878906 -5.078125 L 27.878906 -15.839844 L 20.597656 -15.839844 L 20.597656 -2.519531 L 22.558594 -2.519531 L 22.558594 -5.078125 Z M 28.316406 -21.359375 L 20.078125 -21.359375 L 20.078125 -19 L 28.316406 -19 Z M 34.757812 -20.199219 C 34.15625 -16.917969 33.277344 -13.960938 32.238281 -11.238281 C 31.839844 -14.757812 31.597656 -19.117188 31.4375 -24.398438 L 38.277344 -24.398438 L 38.277344 -26.957031 L 31.398438 -26.957031 C 31.359375 -29 31.359375 -31.117188 31.359375 -33.398438 L 28.878906 -33.398438 C 28.917969 -31.15625 28.957031 -29 29 -26.957031 L 16.757812 -26.957031 L 16.757812 -16.597656 C 16.757812 -12.238281 16.519531 -6.597656 14.757812 -1.761719 L 14.597656 -3.917969 L 10.039062 -2.839844 L 10.039062 -13.839844 L 14.917969 -13.839844 L 14.917969 -16.4375 L 10.039062 -16.4375 L 10.039062 -20.757812 L 13.757812 -20.757812 L 13.757812 -23.359375 L 4.960938 -23.359375 C 6.359375 -24.957031 7.679688 -26.839844 8.839844 -28.796875 C 11.039062 -27.078125 13.238281 -25 14.679688 -23.359375 L 15.917969 -25.757812 C 14.519531 -27.359375 12.277344 -29.359375 10 -31 C 10.28125 -31.558594 10.558594 -32.078125 10.800781 -32.636719 L 8.757812 -33.679688 C 7.039062 -29.757812 4.160156 -26.117188 1.359375 -23.757812 C 1.71875 -23.039062 2.359375 -21.4375 2.558594 -20.757812 C 3.121094 -21.320312 3.679688 -21.917969 4.28125 -22.519531 L 4.28125 -20.757812 L 7.800781 -20.757812 L 7.800781 -16.4375 L 2.320312 -16.4375 L 2.320312 -13.839844 L 7.800781 -13.839844 L 7.800781 -2.320312 C 5.558594 -1.800781 3.480469 -1.320312 1.917969 -1 L 2.519531 1.679688 C 5.800781 0.839844 10.359375 -0.359375 14.640625 -1.519531 C 14.238281 -0.519531 13.757812 0.480469 13.238281 1.398438 C 13.71875 1.679688 14.71875 2.558594 15.117188 3.039062 C 18.558594 -2.601562 19.117188 -10.839844 19.117188 -16.597656 L 19.117188 -24.398438 L 29.078125 -24.398438 C 29.359375 -17.4375 29.757812 -11.71875 30.359375 -7.359375 C 28.4375 -3.917969 26.039062 -1.039062 23.039062 1.121094 C 23.519531 1.601562 24.398438 2.640625 24.757812 3.160156 C 27.160156 1.238281 29.277344 -1.039062 31 -3.757812 C 32.039062 0.761719 33.398438 3.078125 35.316406 3.078125 C 37.519531 3.039062 38.398438 1.960938 38.796875 -4.039062 C 38.15625 -4.238281 37.316406 -4.839844 36.757812 -5.398438 C 36.597656 -0.921875 36.199219 0.480469 35.558594 0.480469 C 34.558594 0.480469 33.558594 -1.839844 32.757812 -6.757812 C 34.679688 -10.480469 36.117188 -14.800781 37.15625 -19.71875 Z M 3.039062 -11.199219 C 3.640625 -8.839844 4.199219 -5.800781 4.359375 -3.800781 L 6.238281 -4.359375 C 6.039062 -6.359375 5.480469 -9.398438 4.800781 -11.71875 Z M 12.597656 -4.238281 C 13.199219 -6.121094 13.917969 -9 14.597656 -11.480469 L 12.597656 -12.160156 C 12.238281 -10.039062 11.558594 -6.839844 10.960938 -4.878906 Z M 12.597656 -4.238281 "
          />
        </g>
      </g>
    </g>
    <g fill="#103c76" fill-opacity="1">
      <g transform="translate(129.750935, 348.749977)">
        <g>
          <path
            d="M 37.957031 -16.679688 C 34.636719 -18.558594 28.757812 -21.078125 23.636719 -22.957031 C 25.519531 -24.679688 27.078125 -26.679688 28.199219 -29 L 26.238281 -30.15625 L 25.71875 -30 L 16.4375 -30 C 17.238281 -30.957031 18 -31.878906 18.597656 -32.878906 L 15.4375 -33.4375 C 13.359375 -30.238281 9.398438 -26.476562 3.757812 -23.917969 C 4.441406 -23.4375 5.359375 -22.480469 5.800781 -21.757812 C 9.039062 -23.398438 11.757812 -25.359375 14.039062 -27.4375 L 23.839844 -27.4375 C 19.71875 -21.679688 11.277344 -18.277344 3.039062 -16.957031 C 3.558594 -16.359375 4.238281 -15.117188 4.480469 -14.398438 C 10.480469 -15.519531 16.558594 -17.597656 21.277344 -21.039062 C 26.636719 -19 32.878906 -16.160156 36.15625 -14.199219 Z M 28.039062 -5.398438 C 29.757812 -7.28125 31.917969 -10.160156 33.597656 -12.71875 L 30.796875 -13.878906 C 29.597656 -11.597656 27.4375 -8.441406 25.796875 -6.519531 Z M 7.359375 -5.121094 C 9.71875 -7.078125 11.480469 -10.078125 12.71875 -12.640625 L 10.28125 -13.757812 C 9.121094 -11.359375 7.199219 -8.441406 4.878906 -6.679688 Z M 18.71875 -17.398438 C 17.917969 -8.199219 16.039062 -2.078125 1.761719 0.519531 C 2.320312 1.121094 3 2.359375 3.28125 3.078125 C 13.597656 1.039062 18 -2.878906 20.039062 -8.441406 C 23 -2.121094 28.039062 1.398438 36.558594 2.839844 C 36.917969 2 37.636719 0.839844 38.277344 0.199219 C 28.679688 -1 23.4375 -5.199219 21.199219 -12.679688 C 21.480469 -14.160156 21.679688 -15.71875 21.839844 -17.398438 Z M 18.71875 -17.398438 "
          />
        </g>
      </g>
    </g>
    <g fill="#103c76" fill-opacity="1">
      <g transform="translate(169.746957, 348.749977)">
        <g>
          <path
            d="M 6 -24.679688 L 10.320312 -24.679688 L 10.320312 -21.757812 L 6 -21.757812 Z M 16.917969 -24.679688 L 16.917969 -21.757812 L 12.960938 -21.757812 L 12.960938 -24.679688 Z M 10.320312 -12.878906 L 12.960938 -12.878906 L 12.960938 -18 C 14.839844 -17 17.039062 -15.558594 18.199219 -14.519531 L 19.519531 -16.277344 C 18.277344 -17.320312 16 -18.757812 14.078125 -19.640625 L 12.960938 -18.277344 L 12.960938 -19.757812 L 19.480469 -19.757812 L 19.480469 -26.636719 L 12.960938 -26.636719 L 12.960938 -28.679688 L 20.480469 -28.679688 L 20.480469 -30.957031 L 12.960938 -30.957031 L 12.960938 -33.476562 L 10.320312 -33.476562 L 10.320312 -30.957031 L 2.398438 -30.957031 L 2.398438 -28.679688 L 10.320312 -28.679688 L 10.320312 -26.636719 L 3.558594 -26.636719 L 3.558594 -19.757812 L 9.359375 -19.757812 C 7.480469 -17.597656 4.441406 -15.519531 1.71875 -14.519531 C 2.28125 -14.039062 3.039062 -13.121094 3.441406 -12.558594 C 5.800781 -13.640625 8.398438 -15.597656 10.320312 -17.679688 Z M 21.4375 -3.839844 L 32.878906 -3.839844 L 32.878906 -6.160156 L 21.4375 -6.160156 L 21.4375 -9.28125 L 35.519531 -9.28125 L 35.519531 -11.757812 L 4.679688 -11.757812 L 4.679688 -9.28125 L 18.519531 -9.28125 L 18.519531 -0.558594 L 11.4375 -0.558594 L 11.4375 -7.160156 L 8.597656 -7.160156 L 8.597656 -0.558594 L 2.039062 -0.558594 L 2.039062 2 L 38.078125 2 L 38.078125 -0.558594 L 21.4375 -0.558594 Z M 25.636719 -26.476562 L 32.558594 -26.519531 C 31.878906 -24.160156 30.757812 -22.117188 29.359375 -20.4375 C 27.679688 -22.359375 26.4375 -24.4375 25.636719 -26.476562 Z M 37.957031 -26.519531 L 37.957031 -29 L 26.839844 -29 C 27.398438 -30.238281 27.839844 -31.519531 28.238281 -32.839844 L 25.519531 -33.4375 C 24.4375 -29.4375 22.4375 -25.679688 19.839844 -23.320312 C 20.398438 -22.839844 21.4375 -21.839844 21.839844 -21.320312 C 22.636719 -22.117188 23.4375 -23.078125 24.199219 -24.078125 C 25 -22.277344 26.160156 -20.4375 27.636719 -18.71875 C 25.558594 -16.917969 22.957031 -15.558594 19.878906 -14.558594 C 20.398438 -14.078125 21.277344 -12.960938 21.597656 -12.4375 C 24.597656 -13.558594 27.238281 -14.960938 29.398438 -16.839844 C 31.359375 -15 33.796875 -13.398438 36.675781 -12.320312 C 36.996094 -12.960938 37.796875 -14.078125 38.359375 -14.597656 C 35.519531 -15.558594 33.117188 -16.957031 31.199219 -18.640625 C 33.039062 -20.757812 34.4375 -23.359375 35.398438 -26.519531 Z M 37.957031 -26.519531 "
          />
        </g>
      </g>
    </g>
    <g fill="#103c76" fill-opacity="1">
      <g transform="translate(209.742979, 348.749977)">
        <g>
          <path
            d="M 11.277344 -5.558594 L 11.277344 -8.71875 L 28.679688 -8.71875 L 28.679688 -5.558594 Z M 28.679688 -14 L 28.679688 -10.917969 L 11.277344 -10.917969 L 11.277344 -14 Z M 31.558594 -16.398438 L 8.480469 -16.398438 L 8.480469 3.078125 L 11.277344 3.078125 L 11.277344 -3.320312 L 28.679688 -3.320312 L 28.679688 -0.121094 C 28.679688 0.441406 28.476562 0.601562 27.917969 0.640625 C 27.277344 0.640625 25.117188 0.679688 22.878906 0.601562 C 23.238281 1.320312 23.636719 2.320312 23.757812 3.078125 C 26.796875 3.078125 28.796875 3.039062 30.039062 2.640625 C 31.199219 2.199219 31.558594 1.480469 31.558594 -0.078125 Z M 11.679688 -24.796875 L 19.796875 -24.796875 L 19.796875 -21.4375 L 11.679688 -21.4375 Z M 28.160156 -29.398438 L 28.160156 -21.4375 L 22.4375 -21.4375 L 22.4375 -26.839844 L 11.679688 -26.839844 L 11.679688 -29.398438 Z M 31.078125 -21.4375 L 31.078125 -31.757812 L 8.839844 -31.757812 L 8.839844 -21.4375 L 3.28125 -21.4375 L 3.28125 -13.839844 L 6 -13.839844 L 6 -18.839844 L 33.878906 -18.839844 L 33.878906 -13.839844 L 36.71875 -13.839844 L 36.71875 -21.4375 Z M 31.078125 -21.4375 "
          />
        </g>
      </g>
    </g>
    <g fill="#103c76" fill-opacity="1">
      <g transform="translate(249.739001, 348.749977)">
        <g>
          <path
            d="M 18.160156 -25.878906 L 34.957031 -25.878906 L 34.957031 -21.519531 L 37.796875 -21.519531 L 37.796875 -28.476562 L 27.839844 -28.476562 L 28.679688 -28.796875 C 28.199219 -30.117188 27.117188 -32.199219 26.078125 -33.757812 L 23.398438 -32.878906 C 24.238281 -31.558594 25.117188 -29.839844 25.558594 -28.476562 L 15.398438 -28.476562 L 15.398438 -21.519531 L 18.160156 -21.519531 Z M 34.558594 -18.796875 L 34.558594 -21.4375 L 18.597656 -21.4375 L 18.597656 -18.796875 Z M 12.800781 -31.957031 L 12.320312 -31.839844 L 3.28125 -31.839844 L 3.28125 3 L 5.960938 3 L 5.960938 -29.117188 L 11.238281 -29.117188 C 10.398438 -26.4375 9.199219 -23 8.078125 -20.117188 C 10.917969 -16.957031 11.640625 -14.238281 11.640625 -12.078125 C 11.640625 -10.839844 11.4375 -9.71875 10.800781 -9.28125 C 10.480469 -9.039062 10.039062 -8.960938 9.558594 -8.917969 C 8.917969 -8.839844 8.160156 -8.878906 7.238281 -8.960938 C 7.71875 -8.199219 7.960938 -7.078125 8 -6.320312 C 8.878906 -6.28125 9.878906 -6.28125 10.679688 -6.398438 C 11.480469 -6.480469 12.199219 -6.71875 12.757812 -7.160156 C 13.839844 -7.917969 14.320312 -9.679688 14.320312 -11.800781 C 14.320312 -14.277344 13.640625 -17.160156 10.71875 -20.4375 C 12.078125 -23.636719 13.519531 -27.519531 14.71875 -30.796875 Z M 32.039062 0 C 31.15625 0 31 -0.160156 31 -1.160156 L 31 -11.597656 L 38.078125 -11.597656 L 38.078125 -14.320312 L 15.558594 -14.320312 L 15.558594 -11.597656 L 21.117188 -11.597656 C 20.597656 -5.398438 19 -1.480469 12.121094 0.679688 C 12.71875 1.238281 13.519531 2.320312 13.839844 3.039062 C 21.398438 0.398438 23.320312 -4.28125 24 -11.597656 L 28.199219 -11.597656 L 28.199219 -1.121094 C 28.199219 1.71875 28.839844 2.558594 31.636719 2.558594 L 35.15625 2.558594 C 37.558594 2.558594 38.316406 1.238281 38.558594 -3.960938 C 37.757812 -4.078125 36.636719 -4.558594 35.996094 -5.039062 C 35.917969 -0.679688 35.757812 0 34.878906 0 Z M 32.039062 0 "
          />
        </g>
      </g>
    </g>
  </svg>